<svg width="16" height="11" viewBox="0 0 16 11" fill="none" xmlns="http://www.w3.org/2000/svg">
<path fill-rule="evenodd" clip-rule="evenodd" d="M15.375 0H0.625C0.279813 0 0 0.288557 0 0.644531C0 1.00051 0.279813 1.28906 0.625 1.28906H15.375C15.7202 1.28906 16 1.00051 16 0.644531C16 0.288557 15.7202 0 15.375 0ZM15.375 4.78906H0.625C0.279813 4.78906 0 5.07762 0 5.43359C0 5.78957 0.279813 6.07812 0.625 6.07812H15.375C15.7202 6.07812 16 5.78957 16 5.43359C16 5.07762 15.7202 4.78906 15.375 4.78906ZM0.625 9.57812H15.375C15.7202 9.57812 16 9.86668 16 10.2227C16 10.5786 15.7202 10.8672 15.375 10.8672H0.625C0.279813 10.8672 0 10.5786 0 10.2227C0 9.86668 0.279813 9.57812 0.625 9.57812Z" fill="#333333"/>
</svg>
