<svg width="17" height="15" viewBox="0 0 17 15" fill="none" xmlns="http://www.w3.org/2000/svg">
<path d="M14.9352 1.38458C13.169 -0.461278 10.2957 -0.461278 8.52996 1.38458L8.11983 1.81307L7.70995 1.38458C5.9442 -0.461527 3.07068 -0.461527 1.30493 1.38458C-0.424968 3.19297 -0.436201 6.05944 1.27888 8.05246C2.84315 9.86959 7.4566 13.7954 7.65235 13.9616C7.78523 14.0745 7.94513 14.1295 8.10406 14.1295C8.10932 14.1295 8.11458 14.1295 8.1196 14.1292C8.28403 14.1372 8.44966 14.0782 8.58685 13.9616C8.78259 13.7954 13.3965 9.86959 14.9613 8.05221C16.6761 6.05944 16.6649 3.19297 14.9352 1.38458ZM13.8953 7.04958C12.6757 8.46596 9.32321 11.3872 8.1196 12.4238C6.91598 11.3874 3.56422 8.46646 2.34483 7.04983C1.14838 5.65969 1.13715 3.67991 2.31878 2.44468C2.92226 1.81407 3.71479 1.49851 4.50732 1.49851C5.29985 1.49851 6.09238 1.81382 6.69586 2.44468L7.59738 3.3871C7.70469 3.49928 7.83996 3.56623 7.98193 3.58972C8.21233 3.64144 8.46233 3.57423 8.64158 3.38735L9.54357 2.44468C10.7508 1.18321 12.7144 1.18346 13.9209 2.44468C15.1025 3.67991 15.0913 5.65969 13.8953 7.04958Z" fill="#333333"/>
</svg>
