<svg width="15" height="15" viewBox="0 0 15 15" fill="none" xmlns="http://www.w3.org/2000/svg">
<path fill-rule="evenodd" clip-rule="evenodd" d="M10.3094 0H4.48906C2.12363 0 0.199219 1.92441 0.199219 4.28984V10.1102C0.199219 12.4756 2.12363 14.4 4.48906 14.4H10.3094C12.6748 14.4 14.5992 12.4756 14.5992 10.1102V4.28984C14.5992 1.92441 12.6748 0 10.3094 0ZM13.1506 10.1102C13.1506 11.6793 11.8785 12.9514 10.3094 12.9514H4.48906C2.91992 12.9514 1.64786 11.6793 1.64786 10.1102V4.28984C1.64786 2.72067 2.91992 1.44864 4.48906 1.44864H10.3094C11.8785 1.44864 13.1506 2.72067 13.1506 4.28984V10.1102ZM7.39916 3.47583C5.34555 3.47583 3.6748 5.14657 3.6748 7.20016C3.6748 9.25374 5.34555 10.9245 7.39916 10.9245C9.45277 10.9245 11.1235 9.25377 11.1235 7.20016C11.1235 5.14654 9.45277 3.47583 7.39916 3.47583ZM7.39916 9.47589C6.14231 9.47589 5.12344 8.45703 5.12344 7.20018C5.12344 5.94333 6.14233 4.92447 7.39916 4.92447C8.65601 4.92447 9.67487 5.94333 9.67487 7.20018C9.67487 8.45701 8.65598 9.47589 7.39916 9.47589ZM12.0233 3.50376C12.0233 3.99664 11.6238 4.39619 11.1309 4.39619C10.638 4.39619 10.2385 3.99664 10.2385 3.50376C10.2385 3.01088 10.638 2.61133 11.1309 2.61133C11.6238 2.61133 12.0233 3.01088 12.0233 3.50376Z" fill="white"/>
</svg>
