<svg width="169" height="34" viewBox="0 0 169 34" fill="none" xmlns="http://www.w3.org/2000/svg">
<g clip-path="url(#clip0)">
<path d="M0.179688 33.6349H3.95948V27.9396L5.17879 26.7036L10.9582 33.6349H15.933L8.03194 24.1831L15.4452 16.6702H10.5193L3.95948 23.2864V16.6702H0.179688V33.6349Z" fill="white"/>
<path d="M17.2773 33.6349H30.5432V30.1208H21.0572V26.7278H29.714V23.3349H21.0572V20.1843H30.3238V16.6702H17.2773V33.6349Z" fill="white"/>
<path d="M33.1133 33.6349H46.1108V30.1208H36.8931V16.6702H33.1133V33.6349Z" fill="white"/>
<path d="M47.9492 33.6349H60.9468V30.1208H51.729V16.6702H47.9492V33.6349Z" fill="white"/>
<path d="M62.7852 33.6349H76.0512V30.1208H66.5649V26.7278H75.222V23.3349H66.5649V20.1843H75.8316V16.6702H62.7852V33.6349Z" fill="white"/>
<path d="M82.4048 33.6349V27.8428H85.1118L89.2818 33.6349H93.8419L89.0866 27.1641C91.1349 26.3643 92.4276 24.377 92.4276 22.1958C92.4276 19.3845 90.9644 16.6702 85.5262 16.6702H78.625V33.6349H82.4048ZM85.4531 20.1843C87.8672 20.1843 88.5014 20.9841 88.5014 22.1958C88.5014 23.553 87.4528 24.3285 85.5995 24.3285H82.4048V20.1843H85.4531Z" fill="white"/>
<path d="M106.86 33.6353H110.64V16.6704H106.86V23.3351H99.2759V16.6704H95.4961V33.6353H99.2759V26.8492H106.86V33.6353Z" fill="#FFC700"/>
<path d="M112.953 25.1526C112.953 30.1935 116.879 33.9257 121.757 33.9257C126.634 33.9257 130.535 30.1449 130.535 25.1526C130.535 20.1116 126.634 16.3794 121.757 16.3794C116.806 16.3794 112.953 20.257 112.953 25.1526ZM116.879 25.1526C116.879 22.002 119.172 20.0147 121.757 20.0147C124.244 20.0147 126.609 22.002 126.609 25.1526C126.609 28.3033 124.439 30.2904 121.757 30.2904C119.172 30.2904 116.879 28.3033 116.879 25.1526Z" fill="#FFC700"/>
<path d="M132.859 33.6353H136.639V23.3836L141.224 30.218H142.224L146.662 23.4563V33.6353H150.442V16.6704H147.028L141.834 24.7892L136.371 16.6704H132.859V33.6353Z" fill="#FFC700"/>
<path d="M153.602 33.6353H166.868V30.1211H157.381V26.7281H166.038V23.3351H157.381V20.1845H166.648V16.6704H153.602V33.6353Z" fill="#FFC700"/>
<path d="M93.8398 10.0099L131.182 0.065918L132.261 4.06858L94.9191 14.0125L93.8398 10.0099Z" fill="white"/>
<path d="M168.523 10.0099L131.181 0.065918L130.102 4.06858L167.443 14.0125L168.523 10.0099Z" fill="white"/>
</g>
<defs>
<clipPath id="clip0">
<rect width="168.612" height="34" fill="white"/>
</clipPath>
</defs>
</svg>
