<svg width="92" height="24" viewBox="0 0 92 24" fill="none" xmlns="http://www.w3.org/2000/svg">
<path fill-rule="evenodd" clip-rule="evenodd" d="M23.4747 5.51417C23.4747 8.68253 25.9271 11.0283 28.9736 11.0283C32.0201 11.0283 34.4573 8.65206 34.4573 5.51417C34.4573 2.34581 32.0201 0 28.9736 0C25.8814 0 23.4747 2.4372 23.4747 5.51417ZM25.9271 5.51417C25.9271 3.53394 27.359 2.28487 28.9736 2.28487C30.5274 2.28487 32.0049 3.53394 32.0049 5.51417C32.0049 7.49439 30.6492 8.74346 28.9736 8.74346C27.359 8.74346 25.9271 7.49439 25.9271 5.51417ZM2.36104 10.8455H0V0.182789H2.19348L5.60556 5.28568L8.85008 0.182789H10.9826V10.8455H8.6216V4.44789L5.84928 8.69776H5.22475L2.36104 4.40219V10.8455ZM15.9269 10.8455H13.5659V0.182789H15.9269V4.34126L20.0244 0.182789H23.1014L18.4707 4.90487L23.406 10.8455H20.2986L16.6885 6.48905L15.9269 7.2659V10.8455ZM38.8786 10.8455H36.5175V0.182789H38.711L42.1231 5.28568L45.3676 0.182789H47.5002V10.8455H45.1391V4.44789L42.3668 8.69776H41.7423L38.8786 4.40219V10.8455ZM49.5503 5.51417C49.5503 8.68253 52.0027 11.0283 55.0492 11.0283C58.0957 11.0283 60.5329 8.65206 60.5329 5.51417C60.5329 2.34581 58.0957 0 55.0492 0C51.957 0 49.5503 2.4372 49.5503 5.51417ZM52.0027 5.51417C52.0027 3.53394 53.4345 2.28487 55.0492 2.28487C56.6029 2.28487 58.0805 3.53394 58.0805 5.51417C58.0805 7.49439 56.7248 8.74346 55.0492 8.74346C53.4345 8.74346 52.0027 7.49439 52.0027 5.51417ZM69.8106 0.182789H72.3544L67.5866 10.8455H65.9415L60.93 0.182789H63.5348L66.7793 7.25067L69.8106 0.182789ZM18.7541 20.8012C18.7541 21.3343 18.2819 21.7913 17.0937 21.7913C15.7837 21.7913 14.6413 21.0906 13.9406 19.9634L12.2193 21.3952C12.9505 22.7814 14.5804 24 17.1547 24C19.4548 24 21.1913 22.5529 21.1913 20.6184C21.1913 18.2832 19.0101 17.7042 17.291 17.2478C16.1731 16.951 15.2506 16.7061 15.2506 16.0639C15.2506 15.4546 15.7533 15.0585 16.85 15.0585C18.0381 15.0585 18.9216 15.6678 19.5309 16.3381L21.1151 14.8148C20.2012 13.5962 18.7541 12.8498 16.9414 12.8498C14.4128 12.8498 12.8134 14.4035 12.8134 16.0943C12.8134 18.3796 14.8859 18.959 16.5827 19.4334C17.7586 19.7621 18.7541 20.0405 18.7541 20.8012ZM25.6718 15.3022H22.2597V13.0935H31.4601V15.3022H28.0328V23.7563H25.6718V15.3022ZM42.1916 13.0935H39.8306V18.8819C39.8306 20.5727 39.2061 21.6542 37.6676 21.6542C36.0834 21.6542 35.2609 20.4965 35.2609 18.821V13.0935H32.8998V19.0951C32.8998 22.2635 35.1238 23.8629 37.6676 23.8629C39.922 23.8629 42.1916 22.5224 42.1916 19.1865V13.0935ZM47.7778 23.7563H44.6247V13.0935H48.0063C52.576 13.0935 54.145 15.5003 54.145 18.2878C54.145 21.3343 52.2562 23.7563 47.7778 23.7563ZM51.7078 18.2878C51.7078 16.4904 50.7481 15.3022 47.9758 15.3022H46.9857V21.5476H47.9758C50.6415 21.5476 51.7078 20.268 51.7078 18.2878ZM56.2734 23.7563H58.6344V13.0935H56.2734V23.7563ZM66.2647 23.9391C63.2182 23.9391 60.7658 21.5933 60.7658 18.4249C60.7658 15.3479 63.1725 12.9107 66.2647 12.9107C69.3112 12.9107 71.7484 15.2565 71.7484 18.4249C71.7484 21.5628 69.3112 23.9391 66.2647 23.9391ZM66.2647 15.1956C64.6501 15.1956 63.2182 16.4447 63.2182 18.4249C63.2182 20.4051 64.6501 21.6542 66.2647 21.6542C67.9403 21.6542 69.296 20.4051 69.296 18.4249C69.296 16.4447 67.8184 15.1956 66.2647 15.1956ZM82.9251 19.5521V10.8758H82.9283V4.43247L85.792 8.72804H86.4165L89.1889 4.47817V10.6103H89.1857V19.5978L86.322 15.3023H85.6974L82.9251 19.5521ZM91.5499 10.8758H91.5467V23.8172H89.3532L85.9411 18.7143L82.6966 23.8172L80.5641 23.8172V10.8002H80.5673V0.213068H82.7607L86.1728 5.31596L89.4173 0.213068H91.5499V10.8758Z" fill="#3B557C"/>
</svg>
