<svg width="208" height="48" viewBox="0 0 208 48" fill="none" xmlns="http://www.w3.org/2000/svg">
<path d="M0.222656 41.549H4.88541V34.5136L6.38954 32.9868L13.5191 41.549H19.6559L9.9092 29.8732L19.0542 20.5925H12.9776L4.88541 28.7655V20.5925H0.222656V41.549Z" fill="#333333"/>
<path d="M21.3125 41.549H37.6773V37.208H25.9753V33.0167H36.6544V28.8254H25.9753V24.9335H37.4067V20.5925H21.3125V41.549Z" fill="#333333"/>
<path d="M40.8516 41.549H56.8853V37.208H45.5143V20.5925H40.8516V41.549Z" fill="#333333"/>
<path d="M59.1523 41.549H75.1861V37.208H63.8151V20.5925H59.1523V41.549Z" fill="#333333"/>
<path d="M77.4531 41.549H93.8181V37.208H82.1159V33.0167H92.7952V28.8254H82.1159V24.9335H93.5472V20.5925H77.4531V41.549Z" fill="#333333"/>
<path d="M101.651 41.549V34.394H104.99L110.134 41.549H115.76L109.894 33.5556C112.42 32.5676 114.015 30.1127 114.015 27.4183C114.015 23.9456 112.21 20.5925 105.502 20.5925H96.9883V41.549H101.651ZM105.411 24.9335C108.389 24.9335 109.172 25.9215 109.172 27.4183C109.172 29.0949 107.878 30.0529 105.592 30.0529H101.651V24.9335H105.411Z" fill="#333333"/>
<path d="M131.819 41.5492H136.482V20.5927H131.819V28.8255H122.464V20.5927H117.801V41.5492H122.464V33.1665H131.819V41.5492Z" fill="#FFC700"/>
<path d="M139.34 31.071C139.34 37.298 144.183 41.9083 150.2 41.9083C156.216 41.9083 161.029 37.238 161.029 31.071C161.029 24.8439 156.216 20.2335 150.2 20.2335C144.093 20.2335 139.34 25.0236 139.34 31.071ZM144.183 31.071C144.183 27.1791 147.011 24.7242 150.2 24.7242C153.268 24.7242 156.186 27.1791 156.186 31.071C156.186 34.963 153.509 37.4177 150.2 37.4177C147.011 37.4177 144.183 34.963 144.183 31.071Z" fill="#FFC700"/>
<path d="M163.895 41.5492H168.557V28.8854L174.213 37.3279H175.446L180.921 28.9752V41.5492H185.584V20.5927H181.373L174.965 30.6218L168.226 20.5927H163.895V41.5492Z" fill="#FFC700"/>
<path d="M189.484 41.5492H205.849V37.2082H194.147V33.0168H204.826V28.8255H194.147V24.9336H205.578V20.5927H189.484V41.5492Z" fill="#FFC700"/>
<path d="M115.762 12.365L161.827 0.0812988L163.158 5.02577L117.093 17.3095L115.762 12.365Z" fill="#333333"/>
<path d="M207.888 12.365L161.824 0.0812988L160.492 5.02577L206.557 17.3095L207.888 12.365Z" fill="#333333"/>
</svg>
