<svg width="18" height="18" viewBox="0 0 18 18" fill="none" xmlns="http://www.w3.org/2000/svg">
<path d="M15.7364 2.26357C14.2767 0.803883 12.336 0 10.2717 0C8.20747 0 6.26674 0.803883 4.80709 2.26357C3.34744 3.72322 2.54352 5.66395 2.54352 7.72819C2.54352 9.61548 3.21585 11.3992 4.4466 12.8068L0.154617 17.0988C-0.0515391 17.305 -0.0515391 17.6392 0.154617 17.8454C0.257695 17.9484 0.392801 18 0.527871 18C0.662941 18 0.798082 17.9485 0.901125 17.8453L5.19314 13.5534C6.60069 14.7841 8.38445 15.4564 10.2717 15.4564C12.336 15.4564 14.2767 14.6526 15.7364 13.1929C17.196 11.7332 17.9999 9.79249 17.9999 7.72822C17.9999 5.66395 17.1961 3.72322 15.7364 2.26357ZM14.9899 12.4463C12.3883 15.0479 8.15527 15.0479 5.55367 12.4463C2.95211 9.84477 2.95211 5.61171 5.55367 3.01015C6.85459 1.70923 8.5629 1.05898 10.2718 1.05898C11.9802 1.05898 13.6892 1.70954 14.9899 3.01015C17.5914 5.61168 17.5914 9.84473 14.9899 12.4463Z" fill="#B7B7B7"/>
</svg>
