<svg width="18" height="18" viewBox="0 0 18 18" fill="none" xmlns="http://www.w3.org/2000/svg">
<path d="M17.25 14.25H15.2527C14.928 13.1693 13.935 12.375 12.75 12.375C11.565 12.375 10.5728 13.1693 10.2473 14.25H0.749988C0.335988 14.25 0 14.586 0 15C0 15.414 0.335988 15.75 0.749988 15.75H10.2472C10.572 16.8307 11.565 17.625 12.75 17.625C13.935 17.625 14.9272 16.8307 15.2527 15.75H17.25C17.6647 15.75 18 15.414 18 15C18 14.586 17.6647 14.25 17.25 14.25ZM12.75 16.125C12.1297 16.125 11.625 15.6203 11.625 15C11.625 14.3797 12.1297 13.875 12.75 13.875C13.3703 13.875 13.875 14.3797 13.875 15C13.875 15.6203 13.3702 16.125 12.75 16.125Z" fill="#838383"/>
<path d="M17.25 2.25011H15.2527C14.9272 1.16937 13.935 0.375122 12.75 0.375122C11.565 0.375122 10.5728 1.16937 10.2472 2.25011H0.749988C0.335988 2.25011 0 2.5861 0 3.0001C0 3.4141 0.335988 3.75009 0.749988 3.75009H10.2472C10.5728 4.83086 11.565 5.62511 12.75 5.62511C13.935 5.62511 14.9273 4.83086 15.2527 3.75012H17.25C17.6647 3.75012 18 3.41413 18 3.00013C18 2.58613 17.6647 2.25011 17.25 2.25011ZM12.75 4.1251C12.1297 4.1251 11.625 3.62036 11.625 3.0001C11.625 2.37984 12.1297 1.8751 12.75 1.8751C13.3703 1.8751 13.875 2.37984 13.875 3.0001C13.875 3.62036 13.3702 4.1251 12.75 4.1251Z" fill="#838383"/>
<path d="M17.25 8.24987H7.75276C7.42725 7.16913 6.435 6.37488 5.25002 6.37488C4.06505 6.37488 3.07276 7.16913 2.74729 8.24987H0.749988C0.335988 8.24987 0 8.58586 0 8.99986C0 9.41386 0.335988 9.74985 0.749988 9.74985H2.74725C3.07276 10.8306 4.06501 11.6248 5.24999 11.6248C6.43496 11.6248 7.42725 10.8306 7.75273 9.74985H17.25C17.6647 9.74985 18 9.41386 18 8.99986C18 8.58586 17.6647 8.24987 17.25 8.24987ZM5.24999 10.1249C4.62973 10.1249 4.12499 9.62012 4.12499 8.99986C4.12499 8.37959 4.62973 7.87486 5.24999 7.87486C5.87025 7.87486 6.37499 8.37959 6.37499 8.99986C6.37499 9.62012 5.87025 10.1249 5.24999 10.1249Z" fill="#838383"/>
</svg>
