<svg width="16" height="10" viewBox="0 0 16 10" fill="none" xmlns="http://www.w3.org/2000/svg">
<path d="M15.9151 8.67611C15.8958 8.63435 15.8777 8.59972 15.8609 8.57197C15.5833 8.072 15.0528 7.45833 14.2698 6.73078L14.2533 6.71412L14.245 6.70595L14.2366 6.69758H14.2282C13.8728 6.35879 13.6478 6.131 13.5535 6.01438C13.3811 5.79221 13.3424 5.56734 13.4367 5.33949C13.5033 5.16734 13.7534 4.80378 14.1864 4.24832C14.4142 3.95394 14.5946 3.71801 14.7279 3.54026C15.6887 2.26285 16.1053 1.44657 15.9775 1.09109L15.9279 1.00802C15.8945 0.958011 15.8084 0.91226 15.6698 0.870535C15.5308 0.828898 15.3531 0.822012 15.1364 0.849761L12.7373 0.866334C12.6985 0.852562 12.643 0.853845 12.5707 0.870535C12.4984 0.887225 12.4623 0.895599 12.4623 0.895599L12.4206 0.916461L12.3874 0.941525C12.3596 0.958098 12.3291 0.987247 12.2957 1.02891C12.2626 1.07043 12.2348 1.11916 12.2126 1.17469C11.9514 1.84668 11.6545 2.47147 11.3212 3.04902C11.1157 3.39341 10.9269 3.69187 10.7546 3.94458C10.5825 4.1972 10.4381 4.38333 10.3215 4.50264C10.2048 4.62206 10.0995 4.71774 10.0049 4.79001C9.91044 4.86231 9.83834 4.89286 9.78842 4.88169C9.73838 4.87051 9.69125 4.85942 9.64664 4.84834C9.56894 4.79833 9.50644 4.73031 9.45932 4.64424C9.41199 4.55816 9.38013 4.44982 9.36347 4.31931C9.3469 4.18871 9.33709 4.07638 9.33429 3.98193C9.33169 3.88759 9.33289 3.75416 9.33852 3.58201C9.3443 3.40978 9.3469 3.29324 9.3469 3.23214C9.3469 3.02107 9.35101 2.79199 9.35927 2.54485C9.36767 2.29772 9.37447 2.1019 9.38016 1.95765C9.38582 1.81325 9.38844 1.66047 9.38844 1.49941C9.38844 1.33835 9.37864 1.21203 9.35927 1.12036C9.34013 1.0288 9.31074 0.93992 9.27202 0.853758C9.23307 0.767683 9.17606 0.701099 9.10125 0.653831C9.02629 0.606621 8.93309 0.569156 8.82219 0.54132C8.52781 0.474707 8.15296 0.438672 7.69747 0.43307C6.66454 0.421982 6.00083 0.488683 5.70648 0.633085C5.58985 0.694096 5.48432 0.777457 5.38996 0.882906C5.28996 1.00513 5.27602 1.07183 5.3482 1.0828C5.68147 1.13273 5.91741 1.25215 6.05626 1.44096L6.1063 1.54102C6.14523 1.6132 6.18409 1.741 6.22299 1.92424C6.26182 2.10748 6.28689 2.31018 6.29792 2.53222C6.32563 2.93771 6.32563 3.28481 6.29792 3.57355C6.27011 3.86241 6.24385 4.08729 6.21878 4.24835C6.19372 4.40941 6.15626 4.53993 6.1063 4.63986C6.05626 4.73982 6.02297 4.80092 6.00628 4.8231C5.98962 4.84527 5.97573 4.85925 5.9647 4.86473C5.89252 4.8924 5.81744 4.90649 5.73974 4.90649C5.66192 4.90649 5.56756 4.86757 5.45651 4.78978C5.34549 4.71199 5.23027 4.60514 5.11084 4.46905C4.99141 4.33294 4.85673 4.14273 4.70673 3.89839C4.55684 3.65405 4.40132 3.36528 4.24026 3.03207L4.107 2.79042C4.0237 2.63496 3.9099 2.40859 3.7655 2.11153C3.62101 1.81435 3.4933 1.52689 3.38228 1.24921C3.3379 1.13258 3.27123 1.04379 3.18238 0.982695L3.14069 0.957631C3.11297 0.935456 3.06847 0.911909 3.00743 0.886816C2.9463 0.861752 2.88252 0.843779 2.81582 0.83272L0.533256 0.849294C0.300008 0.849294 0.141747 0.902135 0.0584143 1.00767L0.0250639 1.05759C0.00840325 1.0854 0 1.12981 0 1.19094C0 1.25204 0.0166606 1.32702 0.050011 1.41581C0.383223 2.19895 0.745584 2.95422 1.13709 3.68174C1.5286 4.40927 1.86882 4.99531 2.15753 5.43934C2.44631 5.88369 2.74066 6.30306 3.04058 6.69726C3.3405 7.0916 3.53902 7.34431 3.63616 7.45533C3.73341 7.56656 3.80979 7.64971 3.86532 7.70524L4.07362 7.90514C4.20691 8.03845 4.40263 8.19811 4.66089 8.38412C4.9192 8.57025 5.20517 8.75348 5.51895 8.93413C5.83279 9.11447 6.19789 9.26165 6.61447 9.37547C7.03098 9.48941 7.43638 9.53513 7.83072 9.51307H8.78875C8.98305 9.4963 9.13025 9.4352 9.2303 9.32975L9.26345 9.288C9.28574 9.25485 9.3066 9.20335 9.32586 9.13405C9.34535 9.06464 9.35504 8.98816 9.35504 8.90498C9.34935 8.66621 9.36752 8.45103 9.40907 8.25944C9.45059 8.06792 9.49792 7.92352 9.55085 7.82627C9.60375 7.72911 9.66345 7.64712 9.72989 7.58065C9.79647 7.51403 9.84391 7.47368 9.87175 7.45979C9.89941 7.44582 9.9215 7.43633 9.93816 7.43064C10.0714 7.38624 10.2283 7.42924 10.409 7.55987C10.5895 7.69039 10.7588 7.85154 10.9172 8.04306C11.0755 8.23476 11.2657 8.44983 11.4878 8.68859C11.71 8.92744 11.9043 9.10499 12.0709 9.22179L12.2374 9.32175C12.3487 9.38846 12.4931 9.44955 12.6708 9.50508C12.8482 9.56058 13.0037 9.57446 13.1372 9.54672L15.2697 9.51345C15.4807 9.51345 15.6448 9.47853 15.7612 9.40923C15.8779 9.33982 15.9472 9.26334 15.9695 9.18015C15.9918 9.09688 15.993 9.0024 15.9737 8.89678C15.954 8.79142 15.9345 8.71774 15.9151 8.67611Z" fill="white"/>
</svg>
